<svg xmlns="http://www.w3.org/2000/svg" width="1198" height="308" viewBox="0 0 1198 308"><path fill-rule="evenodd" d="M817.996 1.064c-25.492 2.711-56.428 13.03-80.381 26.813-27.335 15.73-46.685 35.405-53.864 54.771-1.583 4.271-2.177 8.149-2.197 14.352-.023 7.239.373 9.319 2.672 14.018 3.296 6.737 8.933 12.519 11.316 11.604 1.412-.542 1.094-1.283-2.047-4.759-5.699-6.309-7.844-12.038-7.81-20.863.056-14.504 6.584-26.282 23.655-42.679 5.624-5.402 14.485-12.669 19.693-16.149 17.068-11.409 43.246-22.869 63.239-27.685 43.154-10.394 76.511-5.922 96.502 12.939 19.473 18.374 24.469 45.226 15.143 81.397-1.614 6.258-4.104 14.371-5.534 18.028-8.364 21.393-26.363 51.305-42.512 70.649-11.702 14.017-33.277 35.415-46.871 46.487-29.181 23.766-62.32 41.46-93 49.654-8.168 2.182-31.609 2.529-37.19.551-5.176-1.834-11.549-8.519-12.919-13.55-3.127-11.489 5.266-28.722 18.821-38.642 5.762-4.217 7.8-7 5.126-7-2.281 0-10.916 6.293-15.25 11.113-8.798 9.786-14.185 22.569-13.278 31.509 1.048 10.335 6.358 16.628 17.335 20.545 7.985 2.849 22.268 2.769 35.855-.199 35.241-7.7 80.141-33.423 114.529-65.612 19.861-18.591 33.933-34.874 47.84-55.356 20.206-29.759 31.131-55.7 35.7-84.767 2.907-18.495.77-34.297-6.793-50.233-3.281-6.913-5.55-9.995-12.155-16.504C881.787 9.832 870.1 4.323 851.118 1.462c-10.297-1.553-21.05-1.682-33.122-.398M336 9.572c-2.475.204-11.25.87-19.5 1.48-19.393 1.433-50.944 5.191-75.249 8.962C230.664 21.656 221.776 23 221.501 23c-.276 0-.501-.873-.501-1.941 0-3.596-2.266-3.516-5.472.193-2.899 3.354-3.842 3.735-14.068 5.687-34.747 6.635-77.935 16.887-112.032 26.595C49.539 64.892 5.216 81.349 1.138 86.316c-3.344 4.073 2.963 6.583 6.828 2.718 7.76-7.76 63.492-26.924 117.534-40.415 27.234-6.798 83.489-18.913 84.287-18.151.517.492-2.063 5.716-13.85 28.032-30.631 57.998-56.246 110.815-82.203 169.5-3.041 6.875-6.653 14.975-8.027 18-1.375 3.025-5.427 12.25-9.004 20.5s-7.938 18.15-9.689 22c-7.184 15.794-7.84 19.214-3.52 18.344 1.162-.234 3.695-5.289 7.939-15.844 25.784-64.12 72.391-162.602 110.802-234.131 12.071-22.479 15.529-27.8 18.451-28.397 1.273-.259 3.326-.677 4.564-.927 1.238-.251 11.025-1.803 21.75-3.45 49.019-7.529 97.83-11.275 120.571-9.252 15.761 1.402 17.234 1.779 17.623 4.509.196 1.379 1.022 2.148 2.306 2.148 1.517 0 2.075-.77 2.309-3.188.39-4.033-2.043-5.745-10.309-7.254-6.212-1.134-35.588-2.137-43.5-1.486M802.195 40.75c-1.068 1.513-3.402 5.675-5.186 9.25-1.785 3.575-4.722 8.975-6.527 12-11.33 18.99-43.324 76.366-65.24 117-16.638 30.849-40.37 78.099-40.051 79.742.838 4.319 5.373 1.128 7.743-5.448 1.93-5.356 12.07-26.138 21.368-43.794 4.345-8.25 10.033-19.05 12.642-24 12.832-24.353 53.805-97.864 68.696-123.25 2.984-5.087 6.032-9.25 6.774-9.25 1.315 0 4.218-6.732 5.282-12.25.44-2.277.179-2.75-1.514-2.75-1.125 0-2.919 1.237-3.987 2.75M534.4 81.856c-15.1 11.056-41.537 49.358-58.996 85.473l-4.752 9.828-11.239 7.422c-15.849 10.466-29.619 17.293-37.654 18.669-7.513 1.287-9.198.582-10.271-4.3-.957-4.361 1.777-12.278 7.979-23.106 3.043-5.312 5.533-10.15 5.533-10.75 0-.601-.693-1.092-1.54-1.092s-3.415 2.943-5.708 6.539c-3.601 5.647-5.675 7.548-15.211 13.935C387.384 194.628 377.996 199 371.35 199c-7.35 0-8.746-1.635-8.061-9.443.292-3.331 1.919-10.332 3.615-15.557s3.087-10.422 3.09-11.55c.008-2.805-1.872-4.45-5.085-4.45-3.244 0-16.069 8.302-31.409 20.333-6.05 4.745-11.571 8.636-12.269 8.647-1.816.029-.731-3.71 4.428-15.267 2.402-5.382 4.906-11.797 5.563-14.255 1.039-3.881.975-4.69-.484-6.148-1.495-1.495-1.984-1.522-4.458-.245-4.396 2.269-19.985 18.636-29.28 30.741-4.675 6.089-8.842 11.098-9.259 11.132-1.185.097 8.755-19.091 11.579-22.35 3.725-4.3 6.273-10.395 4.914-11.754-2.005-2.005-4.028-.044-8.809 8.542-3.915 7.03-6.132 9.663-12.829 15.23-9.848 8.188-20.145 14.971-25.708 16.933-5.74 2.026-12.19 1.894-14.148-.289-3.882-4.325-2.581-16.473 2.794-26.09 2.746-4.913 3.113-7.16 1.168-7.16-.714 0-6.935 5.062-13.824 11.25-12.885 11.572-21.582 18.571-25.763 20.732-2.297 1.187-2.36 1.126-1.689-1.624 1.127-4.626 7.965-15.386 14.007-22.041 6.129-6.75 11.119-10.317 14.435-10.317 1.693 0 2.132.606 2.132 2.941 0 1.618.414 3.197.919 3.509 1.559.963 4.081-2.435 4.081-5.498 0-3.891-3.791-6.441-8.262-5.558-7.417 1.466-19.049 12.445-27.657 26.106-3.528 5.598-6.291 13.788-5.419 16.061 1.179 3.073 4.093 3.605 8.218 1.5 3.885-1.982 24.369-18.221 26.992-21.399 2.174-2.632 3.069-1.944 2.058 1.581-1.376 4.8-1.13 12.344.534 16.325 1.772 4.241 7.195 6.911 12.341 6.076 5.416-.879 15.627-6.099 25.791-13.185 5.172-3.606 9.404-6.332 9.404-6.058s-2.284 5.069-5.076 10.655c-5.673 11.349-6.586 15.444-3.443 15.444 1.393 0 5.919-5.191 15.258-17.5 14.716-19.397 33.317-39.581 33.971-36.861.217.902-2.104 7.737-5.158 15.19S315 187.752 315 188.817c0 2.679 2.524 4.519 5.257 3.833 1.255-.315 7.326-4.645 13.49-9.622C354.075 166.614 365 160.121 365 164.454c0 .8-1.358 5.637-3.017 10.75-4.03 12.416-4.621 18.291-2.291 22.782 2.324 4.48 5.698 6.206 11.093 5.674 4.854-.478 19.067-7.07 30.189-14.002 4.111-2.562 7.803-4.658 8.206-4.658s.076 1.857-.724 4.126c-2.255 6.389-1.893 12.255.96 15.568 2.182 2.535 3.033 2.804 8.818 2.79 5.641-.015 7.645-.621 16.835-5.089 5.737-2.789 15.329-8.099 21.315-11.8 9.383-5.8 10.791-6.408 10.212-4.411-2.76 9.506-4.593 17.611-4.574 20.226.012 1.699.868 4.953 1.902 7.23 3.115 6.86 10.292 7.959 21.076 3.228 6.829-2.997 18.215-10.354 28.666-18.523 5.168-4.04 9.805-7.345 10.304-7.345s.229 1.995-.602 4.433c-2.91 8.54 2.246 11.245 10.726 5.628 2.441-1.617 9.267-7.017 15.17-12 5.903-4.984 10.861-9.061 11.017-9.061.157 0-.147 3.123-.674 6.94-1.737 12.564 1.946 18.56 11.401 18.56 6.229 0 17.431-5.63 29.828-14.992 11.398-8.607 14.94-12.132 13.568-13.504-.626-.626-3.791 1.386-8.931 5.676-9.407 7.853-20.263 14.982-25.775 16.927-2.172.766-5.892 1.393-8.267 1.393-3.328 0-4.674-.509-5.874-2.223-3.272-4.671-1.004-18.821 4.519-28.18 1.871-3.172 1.931-3.657.522-4.198-1.081-.415-4.848 2.239-11.703 8.245-21.144 18.523-29.098 24.487-30.624 22.961-1.42-1.42 6.764-15.222 13.22-22.296 7.001-7.67 11.948-11.309 15.377-11.309 1.674 0 2.132.608 2.132 2.833 0 3.77.949 4.523 3.169 2.514 4.716-4.268.198-11.262-6.431-9.953-4.764.942-12.6 6.72-19.118 14.098-6.458 7.31-22.413 20.886-34.242 29.134-16.357 11.407-28.469 15.309-33.482 10.786-1.896-1.712-2.068-2.698-1.636-9.412.521-8.117 2.142-13.619 7.215-24.5 2.471-5.298 5.506-9.31 12.482-16.5 25.113-25.881 51.426-61.048 56.619-75.67 1.528-4.301 1.61-5.401.503-6.735-1.971-2.375-5.307-1.94-9.679 1.261m.375 5.106c-7.222 5.681-26.783 31.768-37.438 49.929-3.1 5.285-6.35 10.734-7.22 12.109-3.014 4.761-4.15 7.3-3.535 7.899.696.677 3.236-2.117 17.984-19.785 24.536-29.391 43.192-60.364 30.209-50.152m506.732 7.207c-1.517 2.292-4.198 6.905-5.957 10.25s-7.713 13.956-13.23 23.581-13.753 24.38-18.301 32.789l-8.27 15.288-9.125 6.295c-11.999 8.278-21.721 13.568-28.015 15.244-6.926 1.844-8.857 1.734-11.42-.655-2.872-2.676-2.916-9.398-.119-18.452 2.199-7.12 2.028-9.509-.68-9.509-.921 0-8.022 6.218-15.782 13.819C910.705 202.313 906 205.463 906 199.294c0-3.544 6.14-16.781 12.342-26.607 3.502-5.548 4.622-8.123 3.862-8.883-2.692-2.692-6.716 2.52-15.264 19.774-7.79 15.723-7.888 24.324-.265 23.087 4.71-.764 11.173-5.559 23.349-17.323l10.703-10.34-.113 8.972c-.109 8.543.019 9.106 2.659 11.749 2.386 2.39 3.571 2.777 8.5 2.777 6.586 0 14.393-3.345 30.073-12.886 5.14-3.128 9.19-5.306 9-4.84-.191.466-4.32 8.612-9.178 18.102-4.857 9.49-8.584 17.9-8.281 18.689 1.206 3.144 3.748 1.003 9.867-8.315 17.203-26.193 39.058-46.88 52.537-49.731 4.417-.934 6.209.728 6.209 5.757 0 5.884-5.874 15.65-14.905 24.782-4.177 4.225-9.49 8.64-11.805 9.811-6.593 3.337-11.732 2.73-13.37-1.578-.597-1.57-1.547-2.307-2.673-2.073-2.534.528-1.789 4.796 1.313 7.532 7.99 7.046 27.086-3.457 39.045-21.474 4.097-6.173 7.395-14.778 7.395-19.296 0-4.427-3.876-7.98-8.705-7.979-8.215.001-23.495 10.092-37.639 24.855-3.764 3.929-7.033 7.144-7.264 7.144-1.621 0 34.82-65.643 50.074-90.203 4.623-7.442 5.306-10.797 2.198-10.797-.769 0-2.64 1.876-4.157 4.169M434.773 142.75c-2.53 2.881-3.147 6.169-1.291 6.881 2.188.84 6.518-3.349 6.518-6.305 0-2.836-2.956-3.162-5.227-.576m726.441.73c-6.199 2.886-14.98 11.332-17.694 17.02-1.05 2.2-2.104 6.7-2.343 10-.429 5.943-.491 6.048-6.451 11-15.62 12.981-27.259 19.498-34.821 19.499-3.17.001-5.105-.562-6.238-1.815-3.86-4.265-3.015-13.208 2.313-24.485 5.804-12.284 3.454-11.763-12.463 2.766-12.606 11.506-24.24 20.535-26.461 20.535-.774 0-.948-.788-.497-2.25 3.71-12.027 21.16-31.75 28.091-31.75 1.934 0 2.35.521 2.35 2.941 0 3.62 1.327 4.589 3.419 2.497 2.209-2.209 1.97-6.049-.532-8.551-5.746-5.746-19.717 3.708-31.903 21.589-3.338 4.898-7.914 14.828-7.96 17.274-.013.688.88 2.154 1.985 3.259 1.868 1.868 2.258 1.906 5.522.543 4.011-1.677 11.626-7.412 22.469-16.926 4.125-3.619 7.806-6.59 8.18-6.603s.262 1.437-.25 3.22c-1.318 4.597-1.127 13.805.349 16.757 1.785 3.573 7.402 6.215 11.818 5.559 7.858-1.166 22.926-9.809 35.764-20.513 4.987-4.158 6.557-5.006 7.268-3.925 3.177 4.834 7.131 12.298 7.859 14.838.826 2.88.589 3.171-6.816 8.373-12.565 8.826-20.172 18.229-20.172 24.936 0 3.13 1.794 4.732 5.299 4.732 4.235 0 9.17-2.662 15.269-8.236 5.943-5.432 10.983-14.421 12.203-21.764l.747-4.5 18.612-9.5c20.129-10.275 22.497-11.773 20.986-13.284-.626-.626-2.148-.26-4.293 1.032-1.828 1.101-10.718 5.748-19.756 10.327-12.522 6.343-16.546 7.98-16.904 6.875-.259-.797-2.651-5.619-5.317-10.715-3.819-7.302-4.844-10.267-4.837-14 .012-6.015 4.243-13.688 10.207-18.508 5.686-4.596 8.025-5.727 11.843-5.727 3.023 0 3.159.16 2.582 3.047-.336 1.676-1.967 5.02-3.625 7.43-3.466 5.038-3.746 6.523-1.227 6.523 2.377 0 8.23-9.725 8.912-14.807.443-3.306.159-4.177-1.81-5.557-3.165-2.217-5.457-2.051-11.677.844m-17.321 65.506c-14.261 10.704-21.316 24.665-9.852 19.496 7.373-3.325 17.467-16.595 16.768-22.045-.3-2.343-.494-2.272-6.916 2.549"/></svg>