<svg xmlns="http://www.w3.org/2000/svg" viewBox="0 0 1254 1254">
  <rect width="1254" height="1254" rx="192" fill="#3f513f"/>
  <path
    fill="#f7f3ea"
    fill-rule="evenodd"
    d="m173.241 205.739-4.258.377.258 53.192.259 53.192 97.75.255 97.75.255v765.899l3.25.592c1.788.325 31.954.458 67.037.295 55.393-.257 63.911-.493 64.735-1.796.592-.938.953-144.502.963-383.25L501 313h584V206.217l-2.252-.565c-2.452-.616-902.535-.529-909.507.087Zm427.544 519.466c-.119 189.912-.139 347.056-.045 349.209.094 2.152.754 4.306 1.466 4.787.728.492 47.218.691 106.294.455 113.46-.452 115.281-.531 140.674-6.099 21.533-4.722 35.553-9.548 55.799-19.208 29.264-13.964 52.517-30.689 77.554-55.783 23.067-23.12 37.57-42.08 54.084-70.707 17.957-31.127 31.459-64.986 41.302-103.575 13.444-52.709 16.521-112.868 8.581-167.784-10.94-75.661-42.248-140.85-91.494-190.505-22.969-23.16-46.368-40.326-74.599-54.729-30.365-15.491-56.222-23.756-90.447-28.91-10.181-1.533-23.537-1.765-120.204-2.086L601 379.909l-.215 345.296ZM722 730v269l34.25-.001c36.08-.002 42.372-.548 58.553-5.08 29.495-8.263 59.338-29.572 82.092-58.62 12.392-15.819 27.249-42.269 36.454-64.896 9.958-24.481 18.076-53.847 23.126-83.658 7.554-44.59 7.185-95.083-1.021-139.745-2.645-14.395-9.003-37.863-13.933-51.424-20.493-56.378-53.439-96.308-97.47-118.136-12.559-6.226-22.827-9.838-35.337-12.432-16.143-3.346-25.458-4.008-56.438-4.008H722v269Z"
  />
</svg>
