<svg xmlns="http://www.w3.org/2000/svg" viewBox="0 0 430 396"><path d="M358 5Q361 6 364 9.5Q367 13 367 19.5Q367 26 366 28.5Q365 31 360 38.5Q355 46 341 60Q327 74 327 75Q327 76 322.5 81Q318 86 311.5 100Q305 114 302 125Q299 136 299 140.5Q299 145 301 147.5Q303 150 304.5 150.5Q306 151 311 150.5Q316 150 321.5 147Q327 144 331 137.5Q335 131 339.5 126.5Q344 122 346.5 121Q349 120 353 120Q357 120 360 122.5Q363 125 364 127Q365 129 365 132Q365 135 364 137Q363 139 357.5 143Q352 147 344.5 148Q337 149 333 150.5Q329 152 325.5 155.5Q322 159 320.5 162Q319 165 319 168.5Q319 172 320 173.5Q321 175 324 176.5Q327 178 327 183Q327 188 328 189.5Q329 191 333.5 192.5Q338 194 350.5 194Q363 194 363.5 196Q364 198 362.5 199.5Q361 201 356 202.5Q351 204 346 208.5Q341 213 340 215.5Q339 218 339.5 223Q340 228 342.5 231.5Q345 235 349.5 238Q354 241 359.5 243Q365 245 373 246Q381 247 384 248.5Q387 250 389 252.5Q391 255 391 258.5Q391 262 388 264.5Q385 267 382 267Q379 267 363 259Q347 251 336 250.5Q325 250 320.5 251.5Q316 253 313 256Q310 259 309.5 263.5Q309 268 313 274Q317 280 325.5 285Q334 290 336.5 293Q339 296 339.5 300.5Q340 305 339 307Q338 309 335.5 310.5Q333 312 330.5 312Q328 312 324 310Q320 308 314 301Q308 294 303.5 291.5Q299 289 295 289Q291 289 289.5 290Q288 291 287.5 297Q287 303 289.5 310.5Q292 318 299.5 330Q307 342 317.5 352Q328 362 329 365Q330 368 329 372Q328 376 325 378Q322 380 319.5 380Q317 380 314 378.5Q311 377 308 373Q305 369 305 367.5Q305 366 300 355.5Q295 345 292 340.5Q289 336 287 334.5Q285 333 285 332Q285 331 278 324.5Q271 318 268 316.5Q265 315 262 315Q259 315 255.5 318.5Q252 322 244.5 320.5Q237 319 234.5 320Q232 321 229.5 323.5Q227 326 223.5 332.5Q220 339 218 345.5Q216 352 215.5 369Q215 386 211.5 389Q208 392 204 392Q200 392 197 389.5Q194 387 193 384Q192 381 192.5 376.5Q193 372 196.5 361Q200 350 200 340Q200 330 198 324.5Q196 319 194.5 317.5Q193 316 189.5 315Q186 314 183 315Q180 316 177.5 319Q175 322 173 322.5Q171 323 169 321Q167 319 167 316Q167 313 165 311.5Q163 310 160.5 310Q158 310 155.5 311.5Q153 313 150.5 316.5Q148 320 145 320.5Q142 321 140.5 319.5Q139 318 139 314.5Q139 311 140.5 308.5Q142 306 142 301.5Q142 297 140 294.5Q138 292 135.5 291Q133 290 125 290.5Q117 291 109.5 295Q102 299 95 305.5Q88 312 82.5 320Q77 328 69.5 335Q62 342 56.5 344Q51 346 46.5 345Q42 344 39.5 340.5Q37 337 37 333Q37 329 40 323.5Q43 318 48.5 313.5Q54 309 60.5 306Q67 303 79 295Q91 287 99 278.5Q107 270 110 263.5Q113 257 113 254Q113 251 111.5 248Q110 245 110.5 240Q111 235 108 231.5Q105 228 95.5 224.5Q86 221 71 220.5Q56 220 53.5 218.5Q51 217 51 214Q51 211 52.5 210Q54 209 59 209Q64 209 70 211Q76 213 85.5 213Q95 213 99.5 211.5Q104 210 107 207Q110 204 110.5 198Q111 192 107 186Q103 180 99 178.5Q95 177 93.5 175.5Q92 174 91.5 170.5Q91 167 93 165.5Q95 164 97 164Q99 164 105.5 168.5Q112 173 117.5 174Q123 175 126 174Q129 173 131.5 170.5Q134 168 135 165.5Q136 163 135.5 157Q135 151 132 145.5Q129 140 126 137Q123 134 118 124.5Q113 115 106.5 109Q100 103 89 97.5Q78 92 73 88Q68 84 66.5 81Q65 78 65 74Q65 70 66 68Q67 66 70.5 64Q74 62 80.5 63.5Q87 65 90.5 68.5Q94 72 99 82.5Q104 93 109.5 99.5Q115 106 119.5 109Q124 112 131.5 114.5Q139 117 146.5 124Q154 131 157.5 131.5Q161 132 164 129Q167 126 167 120.5Q167 115 160 104.5Q153 94 153 89Q153 84 155.5 80.5Q158 77 160 76Q162 75 167 75Q172 75 174 76Q176 77 179.5 81.5Q183 86 186 97Q189 108 191.5 111Q194 114 196 115Q198 116 202 116Q206 116 211 113.5Q216 111 226 112Q236 113 239 111Q242 109 245.5 101.5Q249 94 250.5 76.5Q252 59 254.5 56Q257 53 261 53Q265 53 267 55.5Q269 58 269 61.5Q269 65 267.5 69Q266 73 261.5 80Q257 87 255 93Q253 99 253 104.5Q253 110 254 111.5Q255 113 257.5 113.5Q260 114 264.5 111Q269 108 269 107Q269 106 271.5 104Q274 102 276.5 98Q279 94 280 94Q281 94 283 91.5Q285 89 292 85.5Q299 82 303.5 77.5Q308 73 311.5 66.5Q315 60 319.5 47.5Q324 35 330 24Q336 13 341.5 9Q347 5 351 4.5Q355 4 358 5ZM159.5 41.5Q158 43 155 43Q152 43 150.5 41.5Q149 40 148.5 37.5Q148 35 149 33Q150 31 154.5 31Q159 31 160 32.5Q161 34 161 37Q161 40 159.5 41.5ZM386.5 99Q384 99 383 98Q382 97 382 94Q382 91 384 89.5Q386 88 388 88Q390 88 391.5 89.5Q393 91 392.5 94Q392 97 390.5 98Q389 99 386.5 99ZM79 156Q79 159 73.5 159.5Q68 160 65 159Q62 158 59.5 155Q57 152 57.5 148.5Q58 145 60 143.5Q62 142 65 142Q68 142 70 143Q72 144 75.5 148.5Q79 153 79 156ZM389 200.5Q380 197 380 195Q380 193 382 191Q384 189 392.5 186Q401 183 409.5 183.5Q418 184 421.5 187Q425 190 425.5 191.5Q426 193 425.5 196.5Q425 200 423 202Q421 204 417.5 205Q414 206 406 205Q398 204 389 200.5ZM36.5 209.5Q37 212 35.5 214Q34 216 30 217.5Q26 219 19.5 219Q13 219 9 216.5Q5 214 4.5 209.5Q4 205 6 202.5Q8 200 10.5 199Q13 198 18.5 198.5Q24 199 28 201Q32 203 34 205Q36 207 36.5 209.5ZM360 296.5Q360 294 361.5 292.5Q363 291 366.5 291.5Q370 292 371.5 294.5Q373 297 372.5 299Q372 301 371 302Q370 303 366 302.5Q362 302 361 300.5Q360 299 360 296.5ZM139.5 339.5Q143 340 144 342.5Q145 345 145 348.5Q145 352 144 354.5Q143 357 139 359.5Q135 362 131.5 361Q128 360 126.5 357.5Q125 355 126 350.5Q127 346 131.5 342.5Q136 339 139.5 339.5Z" fill="currentColor" fill-rule="evenodd"/></svg>
