<svg xmlns="http://www.w3.org/2000/svg" width="958" height="817" viewBox="0 0 958 817" version="1.1">
	<path d="M 843 8.682 C 835.262 11.383, 828.251 16.867, 821.026 25.871 C 815.652 32.566, 814.190 35.185, 792.761 76.500 C 776.485 107.879, 775.536 109.567, 758.480 137.500 C 744.300 160.724, 732.698 181.032, 733.279 181.613 C 734.139 182.472, 744.330 169.608, 759.512 148.500 C 797.144 96.178, 817.262 70.637, 839.376 47.109 C 849.304 36.546, 852.388 32.579, 853.981 28.322 C 856.385 21.895, 856.549 16.962, 854.490 12.980 C 852.221 8.592, 847.893 6.973, 843 8.682 M 341.328 146.522 C 331.748 154.074, 333.579 174.277, 344.731 184.069 C 347.079 186.130, 349.120 187, 351.612 187 C 365.121 187, 368.645 155.004, 356.118 146.084 C 351.931 143.102, 345.423 143.295, 341.328 146.522 M 123.020 150.250 C 117.431 153.106, 114.915 156.574, 114.268 162.317 C 113.607 168.175, 116.492 174.355, 122.450 179.847 C 127.936 184.904, 132.914 187.441, 140.369 188.980 C 147.911 190.536, 154.051 189.609, 157.526 186.389 C 159.946 184.146, 160.190 183.332, 159.767 178.929 C 158.640 167.196, 147.250 152.637, 136.762 149.522 C 129.954 147.500, 128.222 147.592, 123.020 150.250 M 620.746 173.027 C 614.326 174.641, 607.806 178.537, 599.619 185.651 C 583.262 199.865, 541.796 231.256, 523.500 243.276 C 516.350 247.973, 506 254.084, 500.500 256.856 C 464.237 275.133, 429.399 276.751, 397.535 261.638 C 383.796 255.122, 378.948 248.333, 374.948 230.006 C 373.840 224.926, 372.268 219.485, 371.456 217.915 C 368.455 212.112, 362.241 211.590, 360.019 216.955 C 358.621 220.330, 358.882 223.269, 361.858 237.684 C 363.672 246.468, 363.821 248.984, 362.941 255.995 C 361.104 270.647, 355.487 282.735, 346.367 291.661 C 333.649 304.107, 314.386 304.845, 298.426 293.498 C 292.211 289.079, 280.627 277.713, 277.002 272.477 C 272.286 265.666, 264.382 250.001, 260.362 239.500 C 257.128 231.050, 255.679 228.641, 251.017 223.961 C 244.476 217.393, 239.535 215.461, 233.525 217.121 C 228.077 218.625, 225.426 220.582, 223.586 224.460 C 220.414 231.144, 222.274 239.570, 228.301 245.816 C 230.060 247.639, 235.775 252.139, 241 255.816 C 260.120 269.269, 281.599 293.059, 291.093 311.300 C 305.422 338.829, 303.818 358.007, 285.608 376.859 C 281.699 380.907, 275.800 386.142, 272.500 388.494 C 263.536 394.881, 249.101 401.738, 238.192 404.789 C 229.445 407.236, 226.939 407.495, 212.500 407.449 C 199.359 407.407, 193.819 406.897, 181.500 404.595 C 170.587 402.556, 164.610 401.924, 159.563 402.276 C 149.354 402.988, 139.099 401.385, 125.454 396.946 C 109.119 391.632, 102.967 391.749, 104.372 397.348 C 105.305 401.063, 110.696 404.722, 120.742 408.457 C 125.593 410.260, 131.379 412.663, 133.599 413.796 C 139.178 416.641, 144.523 422.875, 146.684 429.053 C 150.337 439.499, 157.128 444.819, 185.500 459.465 C 233.580 484.285, 246.395 497.413, 237.447 512.681 C 231.953 522.056, 221.495 527.927, 191.685 538.373 C 166.802 547.093, 158.752 551.357, 149.095 560.933 C 143.378 566.601, 138.958 569.839, 131.481 573.835 C 102.147 589.514, 88.219 604.199, 87.178 620.544 C 86.550 630.412, 91.101 636.774, 100.827 639.625 C 112.417 643.023, 127.610 636.977, 145 622.048 C 169.989 600.594, 181.725 592.381, 199.500 583.908 C 216.830 575.647, 230.960 571.988, 245.434 572.015 C 260.494 572.042, 272.189 576.282, 281.503 585.091 C 294.813 597.679, 296.984 612.491, 288.529 633.020 C 286.608 637.684, 285.028 643.210, 285.018 645.300 C 284.981 652.986, 290.303 659.034, 297.732 659.748 C 301.742 660.134, 304.125 659.527, 312.259 656.052 C 324.938 650.635, 334.368 648.626, 340.581 650.018 C 352.179 652.617, 358.201 659.683, 364.001 677.500 C 369.758 695.184, 376.621 703.582, 389.776 709.039 C 402.777 714.433, 407.155 717.006, 413.300 722.866 C 420.392 729.630, 422.434 732.981, 429.630 749.667 C 437.991 769.054, 451.431 790.689, 459.560 797.844 C 475.787 812.127, 502.661 812.436, 526 798.606 C 540.902 789.775, 561.664 770.985, 576.944 752.500 C 581.490 747, 587.300 740.816, 589.855 738.757 C 594.716 734.839, 604.689 730.557, 611.500 729.461 C 622.310 727.723, 636.494 723.341, 645.817 718.859 C 655.062 714.414, 657.349 712.728, 667.817 702.634 C 674.243 696.438, 684.137 687.844, 689.805 683.535 C 707.978 669.720, 716.561 658.125, 726.619 633.803 C 729.588 626.622, 733.474 618.015, 735.253 614.677 C 739.615 606.493, 746.937 599.401, 754.938 595.609 L 761.500 592.500 780 592.500 C 800.782 592.500, 803.227 591.923, 808.664 585.730 C 811.896 582.049, 813.685 575.735, 812.529 572.091 C 811.464 568.735, 813.979 561.756, 817.418 558.524 C 821.552 554.641, 845.666 544, 850.332 544 C 852.252 544, 858.475 542.907, 864.161 541.571 C 882.207 537.332, 896.103 535.056, 910 534.063 C 928.102 532.769, 936.743 529.623, 943.329 521.929 C 948.728 515.621, 950.297 511.591, 949.779 505.354 C 949.009 496.061, 943.240 492.356, 930.914 493.238 C 921.497 493.912, 912.114 498.604, 898.685 509.354 C 886.605 519.024, 875.227 526, 857.640 534.518 C 845.865 540.221, 845.679 540.272, 831.871 541.581 C 822.798 542.440, 815.447 542.608, 810.731 542.062 C 797.147 540.491, 772.810 532.295, 762.962 525.976 C 752.866 519.497, 746 509.100, 746 500.290 C 746 494.741, 748.641 490.098, 756.442 481.933 C 766.245 471.672, 768.345 464.776, 763.747 457.952 C 760.320 452.867, 756.121 450.932, 746.643 450.068 C 736.445 449.138, 730.697 446.565, 724.992 440.376 C 719.828 434.773, 717.427 429.469, 715.918 420.332 C 713.002 402.678, 722.574 381.015, 740.916 363.761 C 757.998 347.691, 781.368 335.969, 802.295 332.973 C 811.679 331.629, 820.508 329.267, 825.500 326.764 C 847.301 315.834, 852.362 291.166, 834.500 282.896 C 826.652 279.262, 812.922 281.494, 802.500 288.096 C 799.750 289.838, 790.750 297.860, 782.500 305.923 C 762.256 325.707, 750.441 334.363, 732.571 342.501 C 718.193 349.050, 708.938 351.304, 696 351.407 C 685.995 351.487, 683.850 351.200, 679.500 349.198 C 670.522 345.067, 666.820 339.905, 664.497 328.280 C 664.144 326.509, 664.379 321.597, 665.020 317.366 C 668.055 297.347, 678.503 275.568, 711.490 220.500 C 727.868 193.159, 732.376 185, 731.103 185 C 729.709 185, 720.855 196.563, 693.968 233.500 C 665.650 272.403, 661.477 277.946, 648.046 294.498 C 628.425 318.681, 616.558 329.713, 609.088 330.715 C 605.820 331.153, 605.108 330.917, 604.567 329.211 C 603.657 326.345, 605.643 319.141, 610.653 307.128 C 615.430 295.674, 619.357 288.796, 625.001 282 C 636.202 268.512, 649.261 245.059, 655.246 227.682 C 658.062 219.507, 658.414 217.239, 658.454 207 C 658.496 196.628, 658.243 194.952, 655.880 189.914 C 652.672 183.073, 647.169 177.404, 641.151 174.742 C 635.979 172.455, 626.268 171.638, 620.746 173.027 M 745.420 194.885 C 739.423 198.543, 738.208 207.598, 743.215 211.320 C 745.623 213.110, 746.377 213.204, 749.891 212.151 C 755.452 210.485, 759 205.977, 759 200.578 C 759 195.389, 756.766 192.998, 751.921 193.004 C 750.040 193.006, 747.114 193.853, 745.420 194.885 M 167.030 335.279 C 158.387 339.653, 162.467 350.582, 172.635 350.293 C 181.989 350.028, 184.074 339.018, 175.452 335.415 C 171.328 333.693, 170.202 333.674, 167.030 335.279 M 15.034 348.752 C 10.276 351.152, 7.591 356.007, 8.460 360.639 C 9.366 365.467, 16.460 372.900, 23.993 376.916 C 30.644 380.461, 40.814 382.956, 48.715 382.983 C 51.583 382.992, 58.558 383.899, 64.215 384.997 C 75.928 387.271, 80.118 387.482, 81.722 385.878 C 83.452 384.148, 82.303 382.469, 76.270 377.914 C 73.213 375.606, 66.164 369.907, 60.606 365.250 C 48.806 355.362, 42.891 351.728, 34.145 348.990 C 26.309 346.537, 19.591 346.453, 15.034 348.752 M 895.378 403.437 C 889.805 405.862, 887.365 412.076, 890.030 417.055 C 893.282 423.132, 907.332 423.800, 911.718 418.087 C 913.839 415.324, 913.288 408.611, 910.750 406.299 C 905.802 401.793, 901.147 400.926, 895.378 403.437 M 828 445.709 C 823.041 447.533, 820.771 453.476, 823.464 457.585 C 825.810 461.167, 829.656 462.405, 834.214 461.048 C 841.221 458.960, 843.016 452.862, 838.077 447.923 C 835.243 445.089, 831.764 444.325, 828 445.709 M 56.388 529.980 C 53.396 531.189, 50 535.831, 50 538.712 C 50 540.078, 51.288 542.442, 52.923 544.077 C 56.920 548.073, 63.421 548.199, 67.974 544.368 C 70.678 542.093, 71.061 541.183, 70.801 537.651 C 70.553 534.281, 69.904 533.165, 67.102 531.283 C 63.595 528.927, 60.059 528.497, 56.388 529.980 M 759.525 625.275 C 755.560 629.240, 754.858 633.891, 757.464 638.931 C 762.313 648.307, 776.665 652.056, 781.957 645.328 C 784.569 642.007, 784.550 637.767, 781.898 632.289 C 779.023 626.351, 774.135 622.815, 767.983 622.224 C 763.391 621.783, 762.806 621.994, 759.525 625.275 M 252.804 695.758 C 238.332 704.208, 222.630 720.048, 218.906 729.955 C 214.660 741.250, 219.252 750.285, 229.970 751.723 C 241.539 753.275, 250.737 743.591, 255.516 724.831 C 256.403 721.349, 258.225 714.989, 259.564 710.698 C 262.219 702.194, 262.678 696.078, 260.800 694.200 C 259.084 692.484, 258.075 692.681, 252.804 695.758" stroke="none" fill="currentColor" fill-rule="evenodd"/>
</svg>