<svg xmlns="http://www.w3.org/2000/svg" viewBox="0 0 508 392"><path d="M6.5 234.5Q4 230 4 227.5Q4 225 5.5 221.5Q7 218 12.5 214.5Q18 211 26.5 210.5Q35 210 54.5 213.5Q74 217 91.5 217Q109 217 122.5 214Q136 211 141 208.5Q146 206 150 202Q154 198 155 193.5Q156 189 154.5 185.5Q153 182 147.5 178Q142 174 134 171.5Q126 169 125 167.5Q124 166 124 163Q124 160 125.5 158.5Q127 157 131 157Q135 157 143 161.5Q151 166 156.5 166.5Q162 167 165.5 166Q169 165 172.5 160.5Q176 156 176.5 149Q177 142 175 135.5Q173 129 168.5 121.5Q164 114 159 109Q154 104 142.5 97Q131 90 126 84.5Q121 79 119.5 75Q118 71 118 66Q118 61 119.5 57.5Q121 54 123.5 51.5Q126 49 132.5 47.5Q139 46 145.5 48.5Q152 51 156.5 56Q161 61 164.5 69Q168 77 169.5 83Q171 89 176 98Q181 107 187.5 114Q194 121 202 126Q210 131 217 131.5Q224 132 226 131Q228 130 230.5 126Q233 122 234.5 112.5Q236 103 240 100Q244 97 248.5 97Q253 97 255.5 98.5Q258 100 262 108.5Q266 117 268.5 119.5Q271 122 275.5 123Q280 124 284 122.5Q288 121 291.5 118Q295 115 300 107.5Q305 100 305.5 97.5Q306 95 308 92Q310 89 313 79Q316 69 316 49Q316 29 317 24Q318 19 319.5 16Q321 13 324 10Q327 7 330 5.5Q333 4 338.5 4Q344 4 346.5 5Q349 6 352.5 10Q356 14 357 19.5Q358 25 355.5 33Q353 41 345 52Q337 63 331.5 74.5Q326 86 324 95Q322 104 322 111.5Q322 119 323 122Q324 125 327.5 127.5Q331 130 335 129.5Q339 129 342 127Q345 125 349 120Q353 115 357.5 104.5Q362 94 366.5 90.5Q371 87 376.5 87Q382 87 385 89.5Q388 92 389 94Q390 96 390 99Q390 102 388.5 105.5Q387 109 384 112Q381 115 371 121Q361 127 354.5 134Q348 141 346 146Q344 151 344 154.5Q344 158 347 162Q350 166 356 168Q362 170 371 170Q380 170 391.5 167.5Q403 165 414.5 160.5Q426 156 437.5 150Q449 144 457.5 138Q466 132 474.5 128.5Q483 125 489.5 125.5Q496 126 500 130Q504 134 503.5 140.5Q503 147 498 151.5Q493 156 487 157.5Q481 159 470.5 159Q460 159 453 160.5Q446 162 435.5 166Q425 170 412.5 176.5Q400 183 393.5 187.5Q387 192 380.5 198.5Q374 205 371 211.5Q368 218 368.5 222Q369 226 371 228.5Q373 231 377.5 233Q382 235 388.5 236Q395 237 398.5 239.5Q402 242 402.5 245.5Q403 249 400.5 253Q398 257 398 262Q398 267 403 273.5Q408 280 416 285.5Q424 291 436 296.5Q448 302 455 304Q462 306 468.5 310.5Q475 315 477 319Q479 323 479 326.5Q479 330 478 332.5Q477 335 474 338Q471 341 468.5 342Q466 343 460 343Q454 343 448 340.5Q442 338 424 322.5Q406 307 391 297Q376 287 363.5 281.5Q351 276 343.5 275Q336 274 332 275.5Q328 277 325 282Q322 287 322 295.5Q322 304 323.5 309.5Q325 315 325 319.5Q325 324 323 326.5Q321 329 316.5 329Q312 329 300.5 321Q289 313 282.5 310.5Q276 308 267 307.5Q258 307 254 308Q250 309 244 312.5Q238 316 232 323.5Q226 331 219.5 348Q213 365 210 368Q207 371 204 372.5Q201 374 195 374Q189 374 184.5 370.5Q180 367 179.5 361Q179 355 181 351.5Q183 348 189 342Q195 336 198.5 328.5Q202 321 202 313Q202 305 201 302Q200 299 196 294.5Q192 290 188 288.5Q184 287 175.5 287Q167 287 158.5 289.5Q150 292 142 296.5Q134 301 123 312.5Q112 324 109 325.5Q106 327 100.5 327Q95 327 91 323.5Q87 320 86.5 316Q86 312 87.5 308.5Q89 305 93 301.5Q97 298 100.5 297Q104 296 112 291.5Q120 287 128.5 278.5Q137 270 139 265.5Q141 261 141 255.5Q141 250 138.5 246.5Q136 243 126.5 239Q117 235 102 234Q87 233 74 235Q61 237 48.5 240.5Q36 244 28 244Q20 244 14.5 241.5Q9 239 6.5 234.5ZM229 75Q228 77 225 78Q222 79 218 76.5Q214 74 212.5 68.5Q211 63 213 60Q215 57 219 57Q223 57 225.5 59.5Q228 62 229 64.5Q230 67 230 70Q230 73 229 75ZM398.5 70.5Q397 69 397 66.5Q397 64 399 61.5Q401 59 403 58.5Q405 58 407.5 59.5Q410 61 410.5 63.5Q411 66 408.5 69Q406 72 403 72Q400 72 398.5 70.5ZM114 148.5Q114 153 111 155.5Q108 158 101.5 158Q95 158 92.5 157Q90 156 88 154.5Q86 153 84.5 150Q83 147 84 141.5Q85 136 89 133Q93 130 96.5 130Q100 130 102 131Q104 132 107 134.5Q110 137 112 140.5Q114 144 114 148.5ZM427.5 240.5Q427 239 428.5 234.5Q430 230 435 227.5Q440 225 444 225Q448 225 450.5 226Q453 227 454.5 228Q456 229 457.5 232Q459 235 458 239.5Q457 244 453.5 246.5Q450 249 442.5 248.5Q435 248 431.5 245Q428 242 427.5 240.5ZM59 285Q61 287 60.5 292Q60 297 54.5 301.5Q49 306 42 306.5Q35 307 31.5 304Q28 301 28 296Q28 291 32.5 287Q37 283 43 282Q49 281 53 282Q57 283 59 285ZM326.5 332.5Q328 331 334 331Q340 331 346 336Q352 341 353 343Q354 345 354 350Q354 355 351.5 358Q349 361 343.5 361.5Q338 362 334 359Q330 356 327.5 350.5Q325 345 325 339.5Q325 334 326.5 332.5ZM235.5 387.5Q231 388 229.5 386.5Q228 385 228 380.5Q228 376 229.5 374Q231 372 234.5 371Q238 370 240.5 372.5Q243 375 243 378.5Q243 382 241.5 384.5Q240 387 235.5 387.5Z" fill="currentColor" fill-rule="evenodd"/></svg>
